<svg width="356" height="232" viewBox="0 0 356 232" fill="none" xmlns="http://www.w3.org/2000/svg">
<g filter="url(#filter0_d_448_1518)">
<rect x="16" y="16" width="324" height="200" rx="14" fill="#391E3B"/>
</g>
<path d="M178 41C163.166 41 148.666 45.3987 136.332 53.6397C123.999 61.8809 114.386 73.5942 108.709 87.2987C103.032 101.003 101.547 116.083 104.441 130.632C107.335 145.18 114.478 158.544 124.967 169.033C135.456 179.522 148.82 186.665 163.368 189.559C177.917 192.453 192.997 190.968 206.701 185.291C220.406 179.614 232.119 170.001 240.36 157.668C248.601 145.334 253 130.833 253 116C253 106.151 251.06 96.3981 247.291 87.2987C243.522 78.1993 237.998 69.9314 231.033 62.9669C224.069 56.0026 215.801 50.4781 206.701 46.709C197.602 42.9399 187.849 41 178 41ZM178 176C166.133 176 154.533 172.481 144.666 165.888C134.799 159.295 127.109 149.925 122.567 138.961C118.026 127.998 116.838 115.933 119.153 104.295C121.468 92.6557 127.182 81.9647 135.574 73.5736C143.965 65.1824 154.656 59.468 166.295 57.1529C177.933 54.8378 189.998 56.0259 200.961 60.5672C211.925 65.1085 221.295 72.7988 227.888 82.6658C234.481 92.5327 238 104.133 238 116C237.982 131.907 231.655 147.158 220.406 158.406C209.158 169.655 193.907 175.982 178 176ZM182.999 80.6862C182.999 76.5441 179.641 73.1862 175.499 73.1862V73.1862C171.357 73.1862 167.999 76.5441 167.999 80.6862V121.686C167.999 123.895 169.79 125.686 171.999 125.686H205.502C209.645 125.686 213.002 122.328 213.002 118.186V118.186C213.002 114.044 209.645 110.686 205.502 110.686H182.999V80.6862Z" fill="#FFFCFB"/>
<ellipse cx="178" cy="115.5" rx="68" ry="58.5" fill="#391E3B"/>
<path d="M182.999 80.6863C182.999 76.5441 179.641 73.1863 175.499 73.1863V73.1863C171.356 73.1863 167.999 76.5441 167.999 80.6863V121.686C167.999 123.895 169.789 125.686 171.999 125.686H205.502C209.644 125.686 213.002 122.328 213.002 118.186V118.186C213.002 114.044 209.644 110.686 205.502 110.686H182.999V80.6863Z" fill="#FFFCFB"/>
<defs>
<filter id="filter0_d_448_1518" x="0" y="0" width="356" height="232" filterUnits="userSpaceOnUse" color-interpolation-filters="sRGB">
<feFlood flood-opacity="0" result="BackgroundImageFix"/>
<feColorMatrix in="SourceAlpha" type="matrix" values="0 0 0 0 0 0 0 0 0 0 0 0 0 0 0 0 0 0 127 0" result="hardAlpha"/>
<feMorphology radius="4" operator="dilate" in="SourceAlpha" result="effect1_dropShadow_448_1518"/>
<feOffset/>
<feGaussianBlur stdDeviation="6"/>
<feComposite in2="hardAlpha" operator="out"/>
<feColorMatrix type="matrix" values="0 0 0 0 0.203922 0 0 0 0 0.145098 0 0 0 0 0.227451 0 0 0 0.5 0"/>
<feBlend mode="normal" in2="BackgroundImageFix" result="effect1_dropShadow_448_1518"/>
<feBlend mode="normal" in="SourceGraphic" in2="effect1_dropShadow_448_1518" result="shape"/>
</filter>
</defs>
</svg>
